<svg width="130" height="19" viewBox="0 0 130 19" fill="none" xmlns="http://www.w3.org/2000/svg">
<path d="M15.9176 6.65625H12.1847C12.1165 6.1733 11.9773 5.74432 11.767 5.36932C11.5568 4.98864 11.2869 4.66477 10.9574 4.39773C10.6278 4.13068 10.2472 3.92614 9.81534 3.78409C9.3892 3.64205 8.92614 3.57102 8.42614 3.57102C7.52273 3.57102 6.7358 3.79545 6.06534 4.24432C5.39489 4.6875 4.875 5.33523 4.50568 6.1875C4.13636 7.03409 3.9517 8.0625 3.9517 9.27273C3.9517 10.517 4.13636 11.5625 4.50568 12.4091C4.88068 13.2557 5.40341 13.8949 6.07386 14.3267C6.74432 14.7585 7.51989 14.9744 8.40057 14.9744C8.89489 14.9744 9.35227 14.9091 9.77273 14.7784C10.1989 14.6477 10.5767 14.4574 10.9062 14.2074C11.2358 13.9517 11.5085 13.642 11.7244 13.2784C11.946 12.9148 12.0994 12.5 12.1847 12.0341L15.9176 12.0511C15.821 12.8523 15.5795 13.625 15.1932 14.3693C14.8125 15.108 14.2983 15.7699 13.6506 16.3551C13.0085 16.9347 12.2415 17.3949 11.3494 17.7358C10.4631 18.071 9.46023 18.2386 8.34091 18.2386C6.78409 18.2386 5.39205 17.8864 4.16477 17.1818C2.94318 16.4773 1.97727 15.4574 1.26705 14.1222C0.5625 12.7869 0.210227 11.1705 0.210227 9.27273C0.210227 7.36932 0.568182 5.75 1.28409 4.41477C2 3.07955 2.97159 2.0625 4.19886 1.36364C5.42614 0.659091 6.80682 0.306818 8.34091 0.306818C9.35227 0.306818 10.2898 0.448863 11.1534 0.732954C12.0227 1.01705 12.7926 1.43182 13.4631 1.97727C14.1335 2.51704 14.679 3.17898 15.0994 3.96307C15.5256 4.74716 15.7983 5.64489 15.9176 6.65625ZM24.4105 18.2557C23.0866 18.2557 21.9418 17.9744 20.9759 17.4119C20.0156 16.8437 19.2741 16.054 18.7514 15.0426C18.2287 14.0256 17.9673 12.8466 17.9673 11.5057C17.9673 10.1534 18.2287 8.97159 18.7514 7.96023C19.2741 6.94318 20.0156 6.15341 20.9759 5.59091C21.9418 5.02273 23.0866 4.73864 24.4105 4.73864C25.7344 4.73864 26.8764 5.02273 27.8366 5.59091C28.8026 6.15341 29.5469 6.94318 30.0696 7.96023C30.5923 8.97159 30.8537 10.1534 30.8537 11.5057C30.8537 12.8466 30.5923 14.0256 30.0696 15.0426C29.5469 16.054 28.8026 16.8437 27.8366 17.4119C26.8764 17.9744 25.7344 18.2557 24.4105 18.2557ZM24.4276 15.4432C25.0298 15.4432 25.5327 15.2727 25.9361 14.9318C26.3395 14.5852 26.6435 14.1136 26.848 13.517C27.0582 12.9205 27.1634 12.2415 27.1634 11.4801C27.1634 10.7188 27.0582 10.0398 26.848 9.44318C26.6435 8.84659 26.3395 8.375 25.9361 8.02841C25.5327 7.68182 25.0298 7.50852 24.4276 7.50852C23.8196 7.50852 23.3082 7.68182 22.8935 8.02841C22.4844 8.375 22.1747 8.84659 21.9645 9.44318C21.7599 10.0398 21.6577 10.7188 21.6577 11.4801C21.6577 12.2415 21.7599 12.9205 21.9645 13.517C22.1747 14.1136 22.4844 14.5852 22.8935 14.9318C23.3082 15.2727 23.8196 15.4432 24.4276 15.4432ZM38.0384 18.2131C37.044 18.2131 36.1435 17.9574 35.3366 17.446C34.5355 16.929 33.8991 16.1705 33.4276 15.1705C32.9616 14.1648 32.7287 12.9318 32.7287 11.4716C32.7287 9.97159 32.9702 8.72443 33.4531 7.73011C33.9361 6.73011 34.5781 5.98295 35.3793 5.48864C36.1861 4.98864 37.0696 4.73864 38.0298 4.73864C38.7628 4.73864 39.3736 4.86364 39.8622 5.11364C40.3565 5.35795 40.7543 5.66477 41.0554 6.03409C41.3622 6.39773 41.5952 6.75568 41.7543 7.10795H41.8651V0.545454H45.4872V18H41.9077V15.9034H41.7543C41.5838 16.267 41.3423 16.6278 41.0298 16.9858C40.723 17.3381 40.3224 17.6307 39.8281 17.8636C39.3395 18.0966 38.7429 18.2131 38.0384 18.2131ZM39.1889 15.3239C39.7741 15.3239 40.2685 15.1648 40.6719 14.8466C41.081 14.5227 41.3935 14.071 41.6094 13.4915C41.831 12.9119 41.9418 12.233 41.9418 11.4545C41.9418 10.6761 41.8338 10 41.6179 9.42614C41.402 8.85227 41.0895 8.40909 40.6804 8.09659C40.2713 7.78409 39.7741 7.62784 39.1889 7.62784C38.5923 7.62784 38.0895 7.78977 37.6804 8.11364C37.2713 8.4375 36.9616 8.88636 36.7514 9.46023C36.5412 10.0341 36.4361 10.6989 36.4361 11.4545C36.4361 12.2159 36.5412 12.8892 36.7514 13.4744C36.9673 14.054 37.277 14.5085 37.6804 14.8381C38.0895 15.1619 38.5923 15.3239 39.1889 15.3239ZM54.4382 18.2557C53.0916 18.2557 51.9325 17.983 50.9609 17.4375C49.995 16.8864 49.2507 16.108 48.728 15.1023C48.2053 14.0909 47.9439 12.8949 47.9439 11.5142C47.9439 10.1676 48.2053 8.9858 48.728 7.96875C49.2507 6.9517 49.9865 6.15909 50.9354 5.59091C51.8899 5.02273 53.0092 4.73864 54.2933 4.73864C55.157 4.73864 55.9609 4.87784 56.7053 5.15625C57.4553 5.42898 58.1087 5.84091 58.6655 6.39205C59.228 6.94318 59.6655 7.63636 59.978 8.47159C60.2905 9.30114 60.4467 10.2727 60.4467 11.3864V12.3835H49.3928V10.1335H57.0291C57.0291 9.6108 56.9155 9.14773 56.6882 8.74432C56.4609 8.34091 56.1456 8.02557 55.7422 7.7983C55.3445 7.56534 54.8814 7.44886 54.353 7.44886C53.8018 7.44886 53.3132 7.5767 52.8871 7.83239C52.4666 8.08239 52.1371 8.42045 51.8984 8.84659C51.6598 9.26705 51.5376 9.7358 51.532 10.2528V12.392C51.532 13.0398 51.6513 13.5994 51.8899 14.071C52.1342 14.5426 52.478 14.9062 52.9212 15.1619C53.3643 15.4176 53.8899 15.5455 54.4979 15.5455C54.9013 15.5455 55.2706 15.4886 55.6058 15.375C55.9411 15.2614 56.228 15.0909 56.4666 14.8636C56.7053 14.6364 56.8871 14.358 57.0121 14.0284L60.37 14.25C60.1996 15.0568 59.8501 15.7614 59.3217 16.3636C58.799 16.9602 58.1229 17.4261 57.2933 17.7614C56.4695 18.0909 55.5178 18.2557 54.4382 18.2557ZM70.6399 18V0.545454H76.3075C77.3643 0.545454 78.2564 0.732954 78.9837 1.10795C79.7109 1.48295 80.2621 2.00852 80.6371 2.68466C81.0178 3.3608 81.2081 4.14773 81.2081 5.04545C81.2081 5.75 81.0945 6.375 80.8672 6.92045C80.6399 7.46591 80.3217 7.91761 79.9126 8.27557C79.5092 8.62784 79.0348 8.87216 78.4893 9.00852V9.1108C79.0916 9.15625 79.6513 9.36648 80.1683 9.74148C80.6854 10.1108 81.1001 10.6136 81.4126 11.25C81.7308 11.8864 81.8899 12.6278 81.8899 13.4744C81.8899 14.3665 81.6967 15.1534 81.3104 15.8352C80.9297 16.5114 80.3587 17.0426 79.5973 17.429C78.8359 17.8097 77.8928 18 76.7678 18H70.6399ZM71.7053 17.0114H76.7678C78.0803 17.0114 79.0888 16.6818 79.7933 16.0227C80.5036 15.3636 80.8587 14.5142 80.8587 13.4744C80.8587 12.7415 80.6854 12.0852 80.3388 11.5057C79.9979 10.9261 79.5234 10.4687 78.9155 10.1335C78.3075 9.79261 77.603 9.62216 76.8018 9.62216H71.7053V17.0114ZM71.7053 8.65057H76.674C77.4183 8.65057 78.049 8.48864 78.5661 8.16477C79.0888 7.84091 79.4865 7.40625 79.7592 6.8608C80.0376 6.31534 80.1768 5.71023 80.1768 5.04545C80.1768 3.96591 79.8416 3.1108 79.1712 2.48011C78.5007 1.84943 77.5462 1.53409 76.3075 1.53409H71.7053V8.65057ZM89.1875 18.2812C88.4318 18.2812 87.7386 18.1307 87.108 17.8295C86.483 17.5284 85.9801 17.0881 85.5994 16.5085C85.2244 15.929 85.0369 15.2244 85.0369 14.3949C85.0369 13.8494 85.1335 13.3693 85.3267 12.9545C85.5199 12.5398 85.8182 12.1818 86.2216 11.8807C86.625 11.5795 87.142 11.3324 87.7727 11.1392C88.4034 10.9403 89.1562 10.7869 90.0312 10.679C90.696 10.5994 91.2898 10.5227 91.8125 10.4489C92.3352 10.3693 92.7443 10.2472 93.0398 10.0824C93.3409 9.91761 93.4915 9.66761 93.4915 9.33239V8.78693C93.4915 7.83239 93.1903 7.07386 92.5881 6.51136C91.9858 5.94886 91.1563 5.66761 90.0994 5.66761C89.1619 5.66761 88.3722 5.875 87.7301 6.28977C87.0938 6.69886 86.6477 7.22727 86.392 7.875L85.4119 7.50852C85.6619 6.88352 86.0227 6.36364 86.4943 5.94886C86.9716 5.53409 87.517 5.22443 88.1307 5.01989C88.75 4.81534 89.3977 4.71307 90.0739 4.71307C90.6591 4.71307 91.2159 4.79545 91.7443 4.96023C92.2784 5.125 92.7528 5.375 93.1676 5.71023C93.5881 6.04545 93.9205 6.47443 94.1648 6.99716C94.4091 7.5142 94.5312 8.13352 94.5312 8.85511V18H93.4915V15.6392H93.4148C93.1875 16.1278 92.875 16.5739 92.4773 16.9773C92.0852 17.375 91.6108 17.6932 91.054 17.9318C90.5028 18.1648 89.8807 18.2812 89.1875 18.2812ZM89.2898 17.3182C90.108 17.3182 90.8324 17.1193 91.4631 16.7216C92.0994 16.3182 92.5966 15.767 92.9545 15.0682C93.3125 14.3693 93.4915 13.5767 93.4915 12.6903V10.7642C93.3608 10.8778 93.1705 10.9801 92.9205 11.071C92.6761 11.1562 92.3977 11.233 92.0852 11.3011C91.7784 11.3636 91.4545 11.4205 91.1136 11.4716C90.7784 11.517 90.4517 11.5597 90.1335 11.5994C89.179 11.7131 88.4006 11.8892 87.7983 12.1278C87.2017 12.3608 86.7642 12.6676 86.4858 13.0483C86.2131 13.429 86.0767 13.8892 86.0767 14.429C86.0767 15.321 86.3835 16.0256 86.9972 16.5426C87.6108 17.0597 88.375 17.3182 89.2898 17.3182ZM99.794 12.8864L99.777 11.3949H100.05L106.595 4.90909H107.95L101.942 10.875L101.839 10.9176L99.794 12.8864ZM98.8906 18V0.545454H99.9304V18H98.8906ZM106.893 18L101.371 11.0199L102.121 10.3295L108.223 18H106.893ZM115.597 18.2727C114.415 18.2727 113.387 17.9801 112.512 17.3949C111.637 16.8097 110.961 16.0085 110.484 14.9915C110.006 13.9744 109.768 12.8153 109.768 11.5142C109.768 10.2074 110.006 9.04261 110.484 8.01989C110.967 6.99716 111.629 6.19034 112.469 5.59943C113.31 5.00852 114.271 4.71307 115.35 4.71307C116.083 4.71307 116.776 4.8608 117.43 5.15625C118.089 5.44602 118.668 5.86648 119.168 6.41761C119.674 6.96875 120.069 7.63352 120.353 8.41193C120.643 9.19034 120.788 10.0653 120.788 11.0369V11.6847H110.424V10.7386H119.748C119.748 9.78977 119.555 8.93466 119.168 8.1733C118.782 7.41193 118.256 6.80682 117.592 6.35795C116.927 5.90909 116.18 5.68466 115.35 5.68466C114.481 5.68466 113.705 5.92898 113.023 6.41761C112.347 6.90057 111.81 7.55398 111.413 8.37784C111.021 9.2017 110.816 10.1222 110.799 11.1392V11.5653C110.799 12.6562 110.989 13.6364 111.37 14.5057C111.756 15.3693 112.308 16.054 113.023 16.5597C113.739 17.0597 114.597 17.3097 115.597 17.3097C116.313 17.3097 116.924 17.1903 117.43 16.9517C117.941 16.7074 118.359 16.4119 118.683 16.0653C119.006 15.7187 119.251 15.3835 119.415 15.0597L120.362 15.4432C120.163 15.8807 119.853 16.3182 119.433 16.7557C119.018 17.1875 118.489 17.5483 117.847 17.8381C117.211 18.1278 116.461 18.2727 115.597 18.2727ZM124.367 18V4.90909H125.381V6.95455H125.475C125.759 6.28409 126.239 5.74716 126.915 5.34375C127.592 4.93466 128.362 4.73011 129.225 4.73011C129.316 4.73011 129.407 4.73011 129.498 4.73011C129.589 4.73011 129.674 4.73295 129.754 4.73864V5.78693C129.685 5.78125 129.603 5.77273 129.506 5.76136C129.415 5.74432 129.302 5.73579 129.165 5.73579C128.438 5.73579 127.79 5.89204 127.222 6.20455C126.66 6.51705 126.217 6.94886 125.893 7.5C125.569 8.04545 125.407 8.67045 125.407 9.375V18H124.367Z" fill="white"/>
</svg>
